<?xml version="1.0" encoding="UTF-8"?><svg xmlns="http://www.w3.org/2000/svg" viewBox="0 0 217.66 525.96"><defs><style>.d{fill:#b4a683;}.e{fill:#255440;}.f{fill:#e8eff5;}.g{fill:#f2474f;}</style></defs><g id="a"><path class="e" d="M108.29,.16c.33-.22,.76-.22,1.09,0,15.32,10.23,18.87,13.49,19.24,19.35,.3,4.87-4.6,6.44-6.35,6.84-.38,.09-.66,.39-.73,.77l-.11,.62c-.05,.27-.22,.5-.45,.65-2.38,1.51-3.08,3.27-3.28,4.38-.1,.56,.32,1.06,.89,1.12,.91,.1,1.61,.44,2.01,.68,.24,.15,.4,.39,.44,.68,.15,.98,.52,3.49,.75,5.07,.17,1.11-.79,1.58-1.67,1.78-.64,.15-.96,.86-.62,1.43,8.49,14.24,18.15,13.83,18.15,13.83h12.88l.8,.55s-.44,8.39,6.67,10.89,5.28,7.67,5.28,7.67c0,0-1.84,7.33-2.67,13-.66,4.49-6.43,4.52-8.81,4.33-.56-.04-1.03,.39-1.04,.94l-.04,1.62c-.21,1.35-2.77,1.03-3.98,.8-.39-.07-.78,.09-1,.42h0c-.25,.39-.17,.87,.14,1.22,1.22,1.36,.69,3.7,.54,4.27-.02,.09-.03,.19-.03,.28,.44,7.94-3.74,7.45-3.74,7.45-1.77,.61-1.27,2.26-1.27,2.26v121.08c-.21,40.43,6.59,48.37,7.73,49.42,.11,.1,.19,.21,.24,.35l3.4,8.77c.04,.11,.07,.23,.07,.35v4.22c0,.52-.41,.91-.93,.96-1.37,.13-1.29,1.81-1.29,1.81l8.63,10.68c.07,.09,.13,.19,.16,.3l3.87,11.54c3.34,11.71-7.92,13.66-9.75,13.9-.15,.02-.3,0-.44-.05-.41-.14-1.53-.37-3.67,.08-1.7,.36-1.56,1.31-1.18,2.01,.26,.48,.06,1.07-.42,1.31l-.76,.38,2.88,1.3c.06,.03,.12,.05,.18,.06l4.2,.99c.42,.1,.72,.47,.74,.9,.1,2.37,1.12,3.05,1.83,3.22,.42,.11,.69,.51,.72,.94,.32,5.5,2.46,9.07,3.06,9.99,.11,.16,.16,.34,.16,.53v46.24c0,.55,.47,.99,1.02,.96,27.17-1.39,36.28,6.68,37.5,7.9,.1,.1,.17,.21,.22,.34l6.56,17.95c.02,.05,.04,.11,.04,.17,8.37,48.58,11.01,63.58,11.47,66.16,.05,.27-.02,.55-.19,.77-24.04,30.78-106.48,27.3-108.58,27.21-.03,0-.05,0-.08,0-2.11,.09-84.54,3.57-108.58-27.21-.17-.22-.24-.5-.19-.77,.46-2.57,3.1-17.58,11.47-66.16,0-.06,.03-.11,.04-.17l6.56-17.95c.05-.13,.12-.25,.22-.34,1.22-1.22,10.33-9.29,37.5-7.9,.55,.03,1.02-.41,1.02-.96v-46.24c0-.19,.05-.37,.16-.53,.61-.91,2.74-4.49,3.06-9.98,.03-.43,.3-.84,.72-.94,.71-.18,1.73-.85,1.83-3.22,.02-.43,.32-.8,.74-.9l4.21-.98c.06-.01,.12-.03,.18-.06l2.87-1.3-.76-.38c-.48-.24-.68-.83-.42-1.31,.38-.7,.52-1.65-1.18-2.01-2.13-.45-3.24-.22-3.66-.08-.15,.05-.29,.07-.45,.05-1.84-.24-13.09-2.19-9.75-13.9l3.86-11.53c.04-.11,.09-.21,.16-.3l8.63-10.68s.08-1.68-1.29-1.81c-.52-.05-.93-.44-.93-.96v-4.22c0-.12,.02-.24,.07-.35l3.41-8.77c.05-.13,.14-.25,.24-.35,1.13-1.04,7.93-8.98,7.73-49.42V113.06s.5-1.65-1.28-2.26c0,0-4.16,.49-3.73-7.45,0-.09,0-.19-.03-.29-.15-.56-.68-2.9,.54-4.26,.31-.34,.39-.83,.13-1.22h0c-.22-.33-.61-.5-.99-.42-1.21,.23-3.77,.56-3.98-.8l-.03-1.61c-.01-.56-.49-.99-1.05-.95-2.38,.18-8.15,.15-8.81-4.33-.83-5.67-2.66-13-2.66-13,0,0-1.84-5.17,5.27-7.67,7.12-2.5,6.67-10.89,6.67-10.89l.8-.55h12.89s9.65,.42,18.15-13.82c.34-.57,.02-1.29-.62-1.43-.88-.2-1.84-.67-1.67-1.78,.23-1.58,.6-4.08,.75-5.06,.04-.28,.2-.53,.45-.68,.4-.24,1.11-.58,2.01-.68,.57-.07,.99-.56,.89-1.13-.2-1.11-.91-2.87-3.28-4.37-.23-.15-.4-.38-.45-.66l-.1-.62c-.07-.38-.35-.69-.73-.78-1.76-.4-6.66-1.97-6.36-6.84,.37-5.86,3.92-9.11,19.24-19.35Z"/></g><g id="b"/><g id="c"><path class="f" d="M107.74,249.32l4.64-8.04c.51-.87-.13-1.97-1.14-1.97h-9.29c-1.01,0-1.64,1.09-1.14,1.97l4.64,8.04c.51,.87,1.77,.87,2.27,0Z"/><path class="f" d="M91.95,210.99h29.33v25.04c0,6.21-5.05,11.26-11.26,11.26h-6.81c-6.21,0-11.26-5.05-11.26-11.26v-25.04h0Z"/><path class="d" d="M121.28,209.39c-9.72-1.54-19.62-1.54-29.33,0-.38-2.39-.76-4.78-1.14-7.17,10.47-1.66,21.13-1.66,31.6,0-.38,2.39-.76,4.78-1.14,7.17Z"/><rect class="d" x="89.04" y="197.48" width="6.09" height="4.56" rx="1.09" ry="1.09" transform="translate(-28.76 15.97) rotate(-8.58)"/><rect class="d" x="95.89" y="196.69" width="6.69" height="4.56" rx="1.09" ry="1.09" transform="translate(-14.06 7.66) rotate(-4.13)"/><rect class="d" x="103.51" y="196.5" width="6.69" height="4.56" rx="1.09" ry="1.09"/><rect class="d" x="111.14" y="196.89" width="6.69" height="4.56" rx="1.09" ry="1.09" transform="translate(13.55 -7.2) rotate(3.83)"/><rect class="d" x="118.54" y="197.73" width="5.42" height="4.56" rx="1.09" ry="1.09" transform="translate(43.34 -20.52) rotate(11.77)"/><polygon class="g" points="108.86 247.44 104.36 247.44 104.41 213.25 108.81 213.25 108.86 247.44"/><polygon class="g" points="91.96 229.37 91.96 224.87 121.28 224.92 121.28 229.32 91.96 229.37"/><path class="g" d="M104.39,247.44s.64,2.53,2.22,2.53,2.22-2.53,2.22-2.53h-4.44Z"/><ellipse class="d" cx="106.62" cy="210.17" rx="15.07" ry="3.52"/><path class="e" d="M94.39,201.71l1.56,1.47,1.05-1.78s-2.43,.21-2.61,.31"/><path class="e" d="M101.35,201.1l1.59,1.59,1.65-1.68s-2.39,0-3.24,.09Z"/><path class="e" d="M109.42,201.01l.97,1.43,1.14-1.35s-1.31-.26-2.12-.08Z"/><path class="e" d="M117.05,201.51l.68,1.4,1.03-1.21s-.69-.33-1.71-.19Z"/></g></svg>