<?xml version="1.0" standalone="no"?>
<!DOCTYPE svg PUBLIC "-//W3C//DTD SVG 20010904//EN"
 "http://www.w3.org/TR/2001/REC-SVG-20010904/DTD/svg10.dtd">
<svg version="1.0" xmlns="http://www.w3.org/2000/svg"
 width="2104.000000pt" height="2104.000000pt" viewBox="0 0 2104.000000 2104.000000"
 preserveAspectRatio="xMidYMid meet">
<metadata>
Created by potrace 1.14, written by Peter Selinger 2001-2017
</metadata>
<g transform="translate(0.000000,2104.000000) scale(0.100000,-0.100000)"
fill="#000000" stroke="none">
<path d="M10350 20929 c-344 -233 -517 -385 -574 -504 -37 -77 -53 -184 -37
-243 23 -81 119 -162 229 -191 36 -10 44 -17 49 -42 3 -19 23 -44 55 -71 52
-43 101 -126 96 -161 -2 -17 -16 -26 -61 -40 -31 -10 -61 -26 -66 -35 -5 -9
-15 -66 -22 -125 -15 -123 -12 -133 44 -160 24 -11 37 -24 37 -36 0 -32 -115
-194 -203 -287 -132 -140 -249 -219 -392 -265 -65 -21 -92 -23 -365 -27 -162
-2 -300 -8 -306 -13 -6 -5 -14 -39 -17 -77 -10 -125 -71 -244 -156 -307 -27
-19 -81 -48 -120 -64 -130 -53 -201 -135 -201 -232 0 -25 15 -112 34 -195 19
-82 46 -213 60 -291 14 -79 30 -151 35 -162 19 -36 81 -80 133 -96 28 -8 89
-15 134 -15 98 0 114 -10 114 -74 0 -24 6 -48 13 -54 7 -6 51 -12 97 -14 98
-3 107 -14 70 -80 -21 -37 -21 -44 -12 -182 8 -106 15 -156 30 -190 21 -47 69
-86 108 -86 11 0 30 -9 42 -21 l23 -20 -4 -2777 c-3 -2004 -7 -2812 -15 -2902
-49 -523 -96 -783 -184 -1006 -22 -55 -56 -123 -76 -150 -24 -31 -64 -117
-110 -232 -69 -177 -72 -187 -72 -268 0 -93 10 -124 40 -124 21 0 50 -35 50
-60 0 -9 -78 -112 -174 -230 l-173 -214 -89 -266 c-87 -260 -89 -267 -89 -360
0 -88 3 -101 33 -162 73 -149 225 -230 437 -232 141 -2 178 -21 155 -81 -12
-31 -5 -50 23 -63 20 -9 16 -12 -43 -39 -36 -16 -92 -35 -125 -42 -115 -24
-124 -28 -130 -69 -10 -59 -32 -100 -64 -117 -32 -16 -36 -25 -46 -110 -11
-88 -36 -168 -78 -255 l-42 -85 -5 -945 -5 -945 -305 -6 c-374 -8 -552 -30
-777 -95 -184 -53 -364 -140 -430 -207 -25 -26 -55 -98 -162 -391 -124 -339
-133 -369 -161 -530 -16 -94 -81 -470 -144 -836 -165 -954 -231 -1334 -262
-1504 -23 -129 -25 -151 -13 -173 8 -14 57 -69 109 -122 534 -539 1594 -857
3180 -953 297 -18 1813 -18 2110 0 1449 88 2477 366 3035 822 78 64 265 255
265 271 0 6 -20 124 -45 262 -24 139 -65 371 -90 517 -25 146 -55 315 -65 375
-42 240 -213 1229 -236 1365 -22 130 -38 181 -156 505 -72 198 -138 368 -147
379 -47 55 -198 137 -348 189 -248 87 -458 117 -866 124 l-308 5 -10 25 c-5
14 -9 404 -9 949 l0 924 -36 72 c-38 75 -84 237 -84 293 0 47 -8 64 -41 81
-32 16 -53 51 -63 105 -4 21 -12 42 -19 48 -7 6 -51 19 -98 30 -46 11 -110 31
-142 45 l-58 26 26 23 c24 20 25 24 13 55 -12 31 -11 35 10 52 28 23 98 34
162 27 105 -13 267 50 355 138 73 74 99 141 99 260 0 86 -4 101 -89 355 l-88
265 -173 214 c-103 128 -174 224 -174 237 0 23 24 48 56 58 27 8 34 32 34 124
0 66 -6 89 -69 252 -46 121 -84 202 -118 253 -103 154 -182 453 -227 857 -41
369 -41 341 -41 3215 l0 2769 25 13 c14 7 38 15 54 18 37 8 79 52 94 101 7 22
17 99 23 173 9 126 9 135 -11 177 -35 71 -29 79 70 82 46 2 90 8 97 14 7 6 13
30 13 54 0 64 16 74 114 74 135 0 224 38 262 111 8 16 24 80 35 142 11 61 38
195 60 297 44 199 46 241 12 307 -25 49 -101 106 -183 138 -36 14 -86 41 -111
59 -84 62 -147 186 -157 308 -2 37 -10 72 -16 77 -6 5 -144 11 -306 13 -287 4
-297 5 -375 31 -194 64 -382 222 -532 446 -64 96 -65 116 -8 145 49 26 53 46
31 184 -16 102 -26 118 -76 128 -50 11 -70 23 -70 46 0 40 42 108 95 154 33
29 55 57 59 75 4 23 13 30 48 39 113 30 207 113 228 200 16 66 -1 162 -42 244
-38 75 -163 202 -304 308 -133 101 -424 298 -439 298 -6 0 -85 -50 -175 -111z
m-90 -7785 c6 -14 10 -48 10 -75 0 -44 -3 -51 -25 -59 -32 -12 -31 -19 11 -54
l35 -29 35 34 c39 38 41 45 14 52 -17 4 -20 13 -20 69 0 34 4 69 8 76 6 9 38
12 123 10 l114 -3 3 -73 3 -73 -33 -14 c-23 -10 -27 -14 -13 -15 10 0 30 -12
42 -27 l23 -28 25 30 c18 22 21 32 13 42 -13 16 -5 130 10 145 16 16 218 0
233 -18 15 -19 7 -133 -11 -144 -11 -7 -11 -14 0 -39 15 -37 20 -38 50 -6 19
20 21 27 10 40 -12 15 -11 23 11 108 9 35 12 37 47 36 58 -1 134 -22 145 -40
16 -26 -13 -132 -40 -143 -17 -8 -24 -27 -39 -100 -20 -105 -21 -131 -23 -519
l-1 -287 -247 2 -248 3 -3 228 -2 227 -85 0 -85 0 0 -230 0 -230 -250 0 -249
0 -3 303 c-2 166 0 307 4 312 3 6 -2 62 -13 125 -11 63 -22 130 -25 148 -4 26
-10 32 -29 32 -13 0 -26 4 -30 10 -12 20 -18 137 -6 144 21 13 191 30 202 19
5 -5 14 -36 19 -69 9 -55 9 -60 -12 -77 l-22 -19 34 -29 c19 -15 38 -29 42
-29 4 0 14 13 22 29 9 16 26 32 38 36 23 8 23 8 -4 12 -37 6 -45 19 -53 89 -8
73 -1 81 75 87 151 10 160 9 170 -19z m88 -1636 l2 -358 -53 0 c-202 0 -390
151 -436 351 -12 49 -15 352 -4 363 4 3 115 5 247 4 l241 -3 3 -357z m670 175
c-3 -167 -6 -194 -27 -245 -65 -166 -215 -274 -393 -286 l-78 -5 0 355 c0 195
3 358 7 361 3 4 116 7 250 7 l245 0 -4 -187z"/>
<path d="M10120 12990 c0 -5 18 -10 39 -10 22 0 43 5 46 10 4 6 -12 10 -39 10
-25 0 -46 -4 -46 -10z"/>
<path d="M9898 12963 c6 -2 18 -2 25 0 6 3 1 5 -13 5 -14 0 -19 -2 -12 -5z"/>
<path d="M9838 12953 c6 -2 18 -2 25 0 6 3 1 5 -13 5 -14 0 -19 -2 -12 -5z"/>
</g>
</svg>
